<mxfile host="Electron" agent="Mozilla/5.0 (Macintosh; Intel Mac OS X 10_15_7) AppleWebKit/537.36 (KHTML, like Gecko) draw.io/28.0.6 Chrome/138.0.7204.100 Electron/37.2.3 Safari/537.36" version="28.0.6">
  <diagram name="ページ1" id="uckr3ds8ouzGeErpG-TJ">
    <mxGraphModel dx="2307" dy="950" grid="1" gridSize="10" guides="1" tooltips="1" connect="1" arrows="1" fold="1" page="1" pageScale="1" pageWidth="827" pageHeight="1169" math="0" shadow="0">
      <root>
        <mxCell id="0" />
        <mxCell id="1" parent="0" />
        <mxCell id="Te3i9WBPKiAPY4HHtb12-46" value="CDN" style="rounded=0;whiteSpace=wrap;html=1;verticalAlign=top;fontSize=30;align=left;" vertex="1" parent="1">
          <mxGeometry x="-240" y="1230" width="690" height="140" as="geometry" />
        </mxCell>
        <mxCell id="Te3i9WBPKiAPY4HHtb12-43" value="Github Pages" style="rounded=0;whiteSpace=wrap;html=1;verticalAlign=top;fontSize=30;align=left;" vertex="1" parent="1">
          <mxGeometry x="-240" y="1040" width="690" height="140" as="geometry" />
        </mxCell>
        <mxCell id="Te3i9WBPKiAPY4HHtb12-24" value="Github" style="rounded=0;whiteSpace=wrap;html=1;verticalAlign=top;fontSize=30;align=left;" vertex="1" parent="1">
          <mxGeometry x="-240" y="630" width="690" height="360" as="geometry" />
        </mxCell>
        <mxCell id="Te3i9WBPKiAPY4HHtb12-1" value="Git" style="rounded=0;whiteSpace=wrap;html=1;verticalAlign=top;fontSize=30;align=left;" vertex="1" parent="1">
          <mxGeometry x="-240" y="170" width="690" height="400" as="geometry" />
        </mxCell>
        <mxCell id="Te3i9WBPKiAPY4HHtb12-13" style="edgeStyle=orthogonalEdgeStyle;rounded=0;orthogonalLoop=1;jettySize=auto;html=1;exitX=1;exitY=0.5;exitDx=0;exitDy=0;entryX=0;entryY=0.5;entryDx=0;entryDy=0;" edge="1" parent="1" source="Te3i9WBPKiAPY4HHtb12-8" target="Te3i9WBPKiAPY4HHtb12-9">
          <mxGeometry relative="1" as="geometry" />
        </mxCell>
        <mxCell id="Te3i9WBPKiAPY4HHtb12-8" value="git commit" style="rounded=1;whiteSpace=wrap;html=1;" vertex="1" parent="1">
          <mxGeometry x="-200" y="350" width="120" height="60" as="geometry" />
        </mxCell>
        <mxCell id="Te3i9WBPKiAPY4HHtb12-14" style="edgeStyle=orthogonalEdgeStyle;rounded=0;orthogonalLoop=1;jettySize=auto;html=1;exitX=1;exitY=0.5;exitDx=0;exitDy=0;" edge="1" parent="1" source="Te3i9WBPKiAPY4HHtb12-9" target="Te3i9WBPKiAPY4HHtb12-11">
          <mxGeometry relative="1" as="geometry" />
        </mxCell>
        <mxCell id="Te3i9WBPKiAPY4HHtb12-9" value="Commit Event" style="ellipse;whiteSpace=wrap;html=1;" vertex="1" parent="1">
          <mxGeometry x="-50" y="340" width="120" height="80" as="geometry" />
        </mxCell>
        <mxCell id="Te3i9WBPKiAPY4HHtb12-10" value="eslint" style="rounded=1;whiteSpace=wrap;html=1;" vertex="1" parent="1">
          <mxGeometry x="294" y="350" width="120" height="60" as="geometry" />
        </mxCell>
        <mxCell id="Te3i9WBPKiAPY4HHtb12-15" style="edgeStyle=orthogonalEdgeStyle;rounded=0;orthogonalLoop=1;jettySize=auto;html=1;exitX=1;exitY=0.5;exitDx=0;exitDy=0;entryX=0;entryY=0.5;entryDx=0;entryDy=0;" edge="1" parent="1" source="Te3i9WBPKiAPY4HHtb12-11" target="Te3i9WBPKiAPY4HHtb12-10">
          <mxGeometry relative="1" as="geometry" />
        </mxCell>
        <mxCell id="Te3i9WBPKiAPY4HHtb12-11" value="&lt;div&gt;.husky&lt;/div&gt;pre_commit" style="rounded=1;whiteSpace=wrap;html=1;" vertex="1" parent="1">
          <mxGeometry x="130" y="350" width="120" height="60" as="geometry" />
        </mxCell>
        <mxCell id="Te3i9WBPKiAPY4HHtb12-21" style="edgeStyle=orthogonalEdgeStyle;rounded=0;orthogonalLoop=1;jettySize=auto;html=1;exitX=1;exitY=0.5;exitDx=0;exitDy=0;entryX=0;entryY=0.5;entryDx=0;entryDy=0;" edge="1" parent="1" source="Te3i9WBPKiAPY4HHtb12-16" target="Te3i9WBPKiAPY4HHtb12-17">
          <mxGeometry relative="1" as="geometry" />
        </mxCell>
        <mxCell id="Te3i9WBPKiAPY4HHtb12-26" style="edgeStyle=orthogonalEdgeStyle;rounded=0;orthogonalLoop=1;jettySize=auto;html=1;exitX=0.5;exitY=1;exitDx=0;exitDy=0;entryX=0;entryY=0;entryDx=0;entryDy=0;" edge="1" parent="1" source="Te3i9WBPKiAPY4HHtb12-16" target="Te3i9WBPKiAPY4HHtb12-25">
          <mxGeometry relative="1" as="geometry" />
        </mxCell>
        <mxCell id="Te3i9WBPKiAPY4HHtb12-16" value="git push" style="rounded=1;whiteSpace=wrap;html=1;" vertex="1" parent="1">
          <mxGeometry x="-200" y="454" width="120" height="60" as="geometry" />
        </mxCell>
        <mxCell id="Te3i9WBPKiAPY4HHtb12-22" style="edgeStyle=orthogonalEdgeStyle;rounded=0;orthogonalLoop=1;jettySize=auto;html=1;exitX=1;exitY=0.5;exitDx=0;exitDy=0;entryX=0;entryY=0.5;entryDx=0;entryDy=0;" edge="1" parent="1" source="Te3i9WBPKiAPY4HHtb12-17" target="Te3i9WBPKiAPY4HHtb12-19">
          <mxGeometry relative="1" as="geometry" />
        </mxCell>
        <mxCell id="Te3i9WBPKiAPY4HHtb12-17" value="Push Event" style="ellipse;whiteSpace=wrap;html=1;" vertex="1" parent="1">
          <mxGeometry x="-50" y="444" width="120" height="80" as="geometry" />
        </mxCell>
        <mxCell id="Te3i9WBPKiAPY4HHtb12-18" value="git add" style="rounded=1;whiteSpace=wrap;html=1;" vertex="1" parent="1">
          <mxGeometry x="-200" y="250" width="120" height="60" as="geometry" />
        </mxCell>
        <mxCell id="Te3i9WBPKiAPY4HHtb12-23" style="edgeStyle=orthogonalEdgeStyle;rounded=0;orthogonalLoop=1;jettySize=auto;html=1;exitX=1;exitY=0.5;exitDx=0;exitDy=0;entryX=0;entryY=0.5;entryDx=0;entryDy=0;" edge="1" parent="1" source="Te3i9WBPKiAPY4HHtb12-19" target="Te3i9WBPKiAPY4HHtb12-20">
          <mxGeometry relative="1" as="geometry" />
        </mxCell>
        <mxCell id="Te3i9WBPKiAPY4HHtb12-19" value="&lt;div&gt;.husky&lt;/div&gt;pre_push" style="rounded=1;whiteSpace=wrap;html=1;" vertex="1" parent="1">
          <mxGeometry x="130" y="454" width="120" height="60" as="geometry" />
        </mxCell>
        <mxCell id="Te3i9WBPKiAPY4HHtb12-20" value="eslint" style="rounded=1;whiteSpace=wrap;html=1;" vertex="1" parent="1">
          <mxGeometry x="294" y="454" width="120" height="60" as="geometry" />
        </mxCell>
        <mxCell id="Te3i9WBPKiAPY4HHtb12-30" style="edgeStyle=orthogonalEdgeStyle;rounded=0;orthogonalLoop=1;jettySize=auto;html=1;exitX=1;exitY=0.5;exitDx=0;exitDy=0;entryX=0;entryY=0.5;entryDx=0;entryDy=0;" edge="1" parent="1" source="Te3i9WBPKiAPY4HHtb12-25" target="Te3i9WBPKiAPY4HHtb12-27">
          <mxGeometry relative="1" as="geometry" />
        </mxCell>
        <mxCell id="Te3i9WBPKiAPY4HHtb12-25" value="Push Event" style="ellipse;whiteSpace=wrap;html=1;" vertex="1" parent="1">
          <mxGeometry x="-50" y="670" width="120" height="80" as="geometry" />
        </mxCell>
        <mxCell id="Te3i9WBPKiAPY4HHtb12-31" style="edgeStyle=orthogonalEdgeStyle;rounded=0;orthogonalLoop=1;jettySize=auto;html=1;exitX=1;exitY=0.5;exitDx=0;exitDy=0;entryX=0;entryY=0.5;entryDx=0;entryDy=0;" edge="1" parent="1" source="Te3i9WBPKiAPY4HHtb12-27" target="Te3i9WBPKiAPY4HHtb12-29">
          <mxGeometry relative="1" as="geometry" />
        </mxCell>
        <mxCell id="Te3i9WBPKiAPY4HHtb12-27" value="&lt;div&gt;yml&lt;/div&gt;&lt;div&gt;on: Push&lt;/div&gt;" style="rounded=1;whiteSpace=wrap;html=1;" vertex="1" parent="1">
          <mxGeometry x="130" y="680" width="120" height="60" as="geometry" />
        </mxCell>
        <mxCell id="Te3i9WBPKiAPY4HHtb12-29" value="eslint&lt;div&gt;Prettier&lt;/div&gt;" style="rounded=1;whiteSpace=wrap;html=1;" vertex="1" parent="1">
          <mxGeometry x="295" y="680" width="120" height="60" as="geometry" />
        </mxCell>
        <mxCell id="Te3i9WBPKiAPY4HHtb12-34" style="edgeStyle=orthogonalEdgeStyle;rounded=0;orthogonalLoop=1;jettySize=auto;html=1;exitX=1;exitY=0.5;exitDx=0;exitDy=0;" edge="1" parent="1" source="Te3i9WBPKiAPY4HHtb12-32" target="Te3i9WBPKiAPY4HHtb12-33">
          <mxGeometry relative="1" as="geometry" />
        </mxCell>
        <mxCell id="Te3i9WBPKiAPY4HHtb12-32" value="pull request" style="rounded=1;whiteSpace=wrap;html=1;" vertex="1" parent="1">
          <mxGeometry x="-200" y="780" width="120" height="60" as="geometry" />
        </mxCell>
        <mxCell id="Te3i9WBPKiAPY4HHtb12-39" style="edgeStyle=orthogonalEdgeStyle;rounded=0;orthogonalLoop=1;jettySize=auto;html=1;exitX=1;exitY=0.5;exitDx=0;exitDy=0;" edge="1" parent="1" source="Te3i9WBPKiAPY4HHtb12-33" target="Te3i9WBPKiAPY4HHtb12-35">
          <mxGeometry relative="1" as="geometry" />
        </mxCell>
        <mxCell id="Te3i9WBPKiAPY4HHtb12-33" value="Pull Event" style="ellipse;whiteSpace=wrap;html=1;" vertex="1" parent="1">
          <mxGeometry x="-50" y="770" width="120" height="80" as="geometry" />
        </mxCell>
        <mxCell id="Te3i9WBPKiAPY4HHtb12-40" style="edgeStyle=orthogonalEdgeStyle;rounded=0;orthogonalLoop=1;jettySize=auto;html=1;exitX=1;exitY=0.5;exitDx=0;exitDy=0;" edge="1" parent="1" source="Te3i9WBPKiAPY4HHtb12-35" target="Te3i9WBPKiAPY4HHtb12-36">
          <mxGeometry relative="1" as="geometry" />
        </mxCell>
        <mxCell id="Te3i9WBPKiAPY4HHtb12-35" value="&lt;div&gt;yml&lt;/div&gt;&lt;div&gt;on: Pull&amp;nbsp;&lt;/div&gt;" style="rounded=1;whiteSpace=wrap;html=1;" vertex="1" parent="1">
          <mxGeometry x="130" y="780" width="120" height="60" as="geometry" />
        </mxCell>
        <mxCell id="Te3i9WBPKiAPY4HHtb12-36" value="eslint&lt;div&gt;Prettier&lt;/div&gt;&lt;div&gt;jest&lt;/div&gt;" style="rounded=1;whiteSpace=wrap;html=1;" vertex="1" parent="1">
          <mxGeometry x="294" y="780" width="120" height="60" as="geometry" />
        </mxCell>
        <mxCell id="Te3i9WBPKiAPY4HHtb12-41" style="edgeStyle=orthogonalEdgeStyle;rounded=0;orthogonalLoop=1;jettySize=auto;html=1;exitX=1;exitY=0.5;exitDx=0;exitDy=0;entryX=0;entryY=0.5;entryDx=0;entryDy=0;" edge="1" parent="1" source="Te3i9WBPKiAPY4HHtb12-37" target="Te3i9WBPKiAPY4HHtb12-38">
          <mxGeometry relative="1" as="geometry" />
        </mxCell>
        <mxCell id="Te3i9WBPKiAPY4HHtb12-37" value="mainへマージ" style="rounded=1;whiteSpace=wrap;html=1;" vertex="1" parent="1">
          <mxGeometry x="-200" y="870" width="120" height="60" as="geometry" />
        </mxCell>
        <mxCell id="Te3i9WBPKiAPY4HHtb12-44" style="edgeStyle=orthogonalEdgeStyle;rounded=0;orthogonalLoop=1;jettySize=auto;html=1;exitX=1;exitY=0.5;exitDx=0;exitDy=0;" edge="1" parent="1" source="Te3i9WBPKiAPY4HHtb12-38" target="Te3i9WBPKiAPY4HHtb12-42">
          <mxGeometry relative="1" as="geometry" />
        </mxCell>
        <mxCell id="Te3i9WBPKiAPY4HHtb12-38" value="Push Event" style="ellipse;whiteSpace=wrap;html=1;" vertex="1" parent="1">
          <mxGeometry x="-50" y="860" width="120" height="80" as="geometry" />
        </mxCell>
        <mxCell id="Te3i9WBPKiAPY4HHtb12-47" style="edgeStyle=orthogonalEdgeStyle;rounded=0;orthogonalLoop=1;jettySize=auto;html=1;exitX=0.5;exitY=1;exitDx=0;exitDy=0;entryX=0.5;entryY=0;entryDx=0;entryDy=0;" edge="1" parent="1" source="Te3i9WBPKiAPY4HHtb12-42" target="Te3i9WBPKiAPY4HHtb12-45">
          <mxGeometry relative="1" as="geometry" />
        </mxCell>
        <mxCell id="Te3i9WBPKiAPY4HHtb12-42" value="Github&lt;div&gt;Deploy from a blanch&lt;/div&gt;" style="rounded=1;whiteSpace=wrap;html=1;" vertex="1" parent="1">
          <mxGeometry x="130" y="870" width="120" height="60" as="geometry" />
        </mxCell>
        <mxCell id="Te3i9WBPKiAPY4HHtb12-49" style="edgeStyle=orthogonalEdgeStyle;rounded=0;orthogonalLoop=1;jettySize=auto;html=1;exitX=0.5;exitY=1;exitDx=0;exitDy=0;entryX=0.5;entryY=0;entryDx=0;entryDy=0;" edge="1" parent="1" source="Te3i9WBPKiAPY4HHtb12-45" target="Te3i9WBPKiAPY4HHtb12-48">
          <mxGeometry relative="1" as="geometry" />
        </mxCell>
        <mxCell id="Te3i9WBPKiAPY4HHtb12-45" value="ファイル配置" style="rounded=1;whiteSpace=wrap;html=1;" vertex="1" parent="1">
          <mxGeometry x="130" y="1080" width="120" height="60" as="geometry" />
        </mxCell>
        <mxCell id="Te3i9WBPKiAPY4HHtb12-48" value="ファイル" style="rounded=1;whiteSpace=wrap;html=1;" vertex="1" parent="1">
          <mxGeometry x="130" y="1270" width="120" height="60" as="geometry" />
        </mxCell>
        <mxCell id="Te3i9WBPKiAPY4HHtb12-50" value="Githubによるデプロイ" style="whiteSpace=wrap;html=1;shape=mxgraph.basic.oval_callout" vertex="1" parent="1">
          <mxGeometry x="190" y="920" width="250" height="60" as="geometry" />
        </mxCell>
        <mxCell id="Te3i9WBPKiAPY4HHtb12-51" value="&lt;h1 style=&quot;margin-top: 0px;&quot;&gt;CI/CD&lt;/h1&gt;&lt;p&gt;Github Pagesへの公開&lt;br&gt;html/jsをCI/CD&lt;/p&gt;" style="text;html=1;whiteSpace=wrap;overflow=hidden;rounded=0;" vertex="1" parent="1">
          <mxGeometry x="-190" y="30" width="440" height="100" as="geometry" />
        </mxCell>
        <mxCell id="Te3i9WBPKiAPY4HHtb12-53" value="" style="ellipse;html=1;shape=startState;fillColor=#000000;strokeColor=#ff0000;" vertex="1" parent="1">
          <mxGeometry x="-155" y="190" width="30" height="30" as="geometry" />
        </mxCell>
        <mxCell id="Te3i9WBPKiAPY4HHtb12-54" value="" style="edgeStyle=orthogonalEdgeStyle;html=1;verticalAlign=bottom;endArrow=open;endSize=8;strokeColor=#ff0000;rounded=0;" edge="1" source="Te3i9WBPKiAPY4HHtb12-53" parent="1">
          <mxGeometry relative="1" as="geometry">
            <mxPoint x="-140" y="250" as="targetPoint" />
          </mxGeometry>
        </mxCell>
      </root>
    </mxGraphModel>
  </diagram>
</mxfile>
